<?xml version="1.0" encoding="UTF-8"?>
<!DOCTYPE svg PUBLIC "-//W3C//DTD SVG 1.1//EN" "http://www.w3.org/Graphics/SVG/1.1/DTD/svg11.dtd">
<svg xmlns="http://www.w3.org/2000/svg" xmlns:xlink="http://www.w3.org/1999/xlink" version="1.1" width="1171px" height="451px" viewBox="-0.5 -0.5 1171 451" style="background-color: rgb(255, 255, 255);"><defs/><g><rect x="64" y="64" width="320" height="320" fill="none" stroke="#000000" stroke-opacity="0.5" pointer-events="all"/><path d="M 64 224 L 384 224" fill="none" stroke="#000000" stroke-miterlimit="10" pointer-events="stroke"/><path d="M 64 304 L 384 304" fill="none" stroke="#000000" stroke-miterlimit="10" pointer-events="stroke"/><path d="M 224 64 L 224 384" fill="none" stroke="#000000" stroke-miterlimit="10" pointer-events="stroke"/><path d="M 144 64 L 144 384" fill="none" stroke="#000000" stroke-miterlimit="10" pointer-events="stroke"/><path d="M 304 64 L 304 384" fill="none" stroke="#000000" stroke-miterlimit="10" pointer-events="stroke"/><path d="M 64 144 L 384 144" fill="none" stroke="#000000" stroke-miterlimit="10" pointer-events="stroke"/><rect x="74" y="74" width="60" height="60" fill-opacity="0.5" fill="#dae8fc" stroke="#6c8ebf" stroke-opacity="0.5" pointer-events="all"/><rect x="234" y="74" width="60" height="60" fill-opacity="0.5" fill="#dae8fc" stroke="#6c8ebf" stroke-opacity="0.5" pointer-events="all"/><rect x="74" y="234" width="60" height="60" fill-opacity="0.5" fill="#dae8fc" stroke="#6c8ebf" stroke-opacity="0.5" pointer-events="all"/><rect x="234" y="234" width="60" height="60" fill-opacity="0.5" fill="#dae8fc" stroke="#6c8ebf" stroke-opacity="0.5" pointer-events="all"/><rect x="154" y="74" width="60" height="60" fill-opacity="0.5" fill="#d5e8d4" stroke="#82b366" stroke-opacity="0.5" pointer-events="all"/><rect x="314" y="74" width="60" height="60" fill-opacity="0.5" fill="#d5e8d4" stroke="#82b366" stroke-opacity="0.5" pointer-events="all"/><rect x="154" y="234" width="60" height="60" fill-opacity="0.5" fill="#d5e8d4" stroke="#82b366" stroke-opacity="0.5" pointer-events="all"/><rect x="314" y="234" width="60" height="60" fill-opacity="0.5" fill="#d5e8d4" stroke="#82b366" stroke-opacity="0.5" pointer-events="all"/><rect x="74" y="154" width="60" height="60" fill-opacity="0.5" fill="#ffe6cc" stroke="#d79b00" stroke-opacity="0.5" pointer-events="all"/><rect x="234" y="154" width="60" height="60" fill-opacity="0.5" fill="#ffe6cc" stroke="#d79b00" stroke-opacity="0.5" pointer-events="all"/><rect x="234" y="314" width="60" height="60" fill-opacity="0.5" fill="#ffe6cc" stroke="#d79b00" stroke-opacity="0.5" pointer-events="all"/><rect x="74" y="314" width="60" height="60" fill-opacity="0.5" fill="#ffe6cc" stroke="#d79b00" stroke-opacity="0.5" pointer-events="all"/><rect x="154" y="154" width="60" height="60" fill-opacity="0.5" fill="#f8cecc" stroke="#b85450" stroke-opacity="0.5" pointer-events="all"/><rect x="314" y="154" width="60" height="60" fill-opacity="0.5" fill="#f8cecc" stroke="#b85450" stroke-opacity="0.5" pointer-events="all"/><rect x="314" y="314" width="60" height="60" fill-opacity="0.5" fill="#f8cecc" stroke="#b85450" stroke-opacity="0.5" pointer-events="all"/><rect x="154" y="314" width="60" height="60" fill-opacity="0.5" fill="#f8cecc" stroke="#b85450" stroke-opacity="0.5" pointer-events="all"/><rect x="505" y="104" width="240" height="240" fill="none" stroke="#000000" stroke-opacity="0.5" pointer-events="all"/><rect x="520" y="119" width="60" height="60" fill-opacity="0.5" fill="#dae8fc" stroke="#6c8ebf" stroke-opacity="0.5" pointer-events="all"/><rect x="529.5" y="129" width="60" height="60" fill-opacity="0.5" fill="#d5e8d4" stroke="#82b366" stroke-opacity="0.5" pointer-events="all"/><rect x="540" y="139" width="60" height="60" fill-opacity="0.5" fill="#ffe6cc" stroke="#d79b00" stroke-opacity="0.5" pointer-events="all"/><rect x="550" y="149" width="60" height="60" fill-opacity="0.5" fill="#f8cecc" stroke="#b85450" stroke-opacity="0.5" pointer-events="all"/><rect x="640" y="119" width="60" height="60" fill-opacity="0.5" fill="#dae8fc" stroke="#6c8ebf" stroke-opacity="0.5" pointer-events="all"/><rect x="649.5" y="129" width="60" height="60" fill-opacity="0.5" fill="#d5e8d4" stroke="#82b366" stroke-opacity="0.5" pointer-events="all"/><rect x="660" y="139" width="60" height="60" fill-opacity="0.5" fill="#ffe6cc" stroke="#d79b00" stroke-opacity="0.5" pointer-events="all"/><rect x="670" y="149" width="60" height="60" fill-opacity="0.5" fill="#f8cecc" stroke="#b85450" stroke-opacity="0.5" pointer-events="all"/><rect x="520" y="239" width="60" height="60" fill-opacity="0.5" fill="#dae8fc" stroke="#6c8ebf" stroke-opacity="0.5" pointer-events="all"/><rect x="529.5" y="249" width="60" height="60" fill-opacity="0.5" fill="#d5e8d4" stroke="#82b366" stroke-opacity="0.5" pointer-events="all"/><rect x="540" y="259" width="60" height="60" fill-opacity="0.5" fill="#ffe6cc" stroke="#d79b00" stroke-opacity="0.5" pointer-events="all"/><rect x="550" y="269" width="60" height="60" fill-opacity="0.5" fill="#f8cecc" stroke="#b85450" stroke-opacity="0.5" pointer-events="all"/><rect x="640" y="239" width="60" height="60" fill-opacity="0.5" fill="#dae8fc" stroke="#6c8ebf" stroke-opacity="0.5" pointer-events="all"/><rect x="649.5" y="249" width="60" height="60" fill-opacity="0.5" fill="#d5e8d4" stroke="#82b366" stroke-opacity="0.5" pointer-events="all"/><rect x="660" y="259" width="60" height="60" fill-opacity="0.5" fill="#ffe6cc" stroke="#d79b00" stroke-opacity="0.5" pointer-events="all"/><rect x="670" y="269" width="60" height="60" fill-opacity="0.5" fill="#f8cecc" stroke="#b85450" stroke-opacity="0.5" pointer-events="all"/><path d="M 505 223.78 L 745 224" fill="none" stroke="#000000" stroke-miterlimit="10" pointer-events="stroke"/><path d="M 625 104 L 625 344" fill="none" stroke="#000000" stroke-miterlimit="10" pointer-events="stroke"/><rect x="864" y="104" width="240" height="240" fill="none" stroke="#000000" stroke-opacity="0.5" pointer-events="all"/><rect x="888.5" y="129" width="60" height="60" fill-opacity="0.5" fill="#60a917" stroke="#2d7600" stroke-opacity="0.5" pointer-events="all"/><rect x="898" y="139" width="60" height="60" fill-opacity="0.5" fill="#6a00ff" stroke="#3700cc" stroke-opacity="0.5" pointer-events="all"/><rect x="1008.5" y="129" width="60" height="60" fill-opacity="0.5" fill="#60a917" stroke="#2d7600" stroke-opacity="0.5" pointer-events="all"/><rect x="1018" y="139" width="60" height="60" fill-opacity="0.5" fill="#6a00ff" stroke="#3700cc" stroke-opacity="0.5" pointer-events="all"/><rect x="888.5" y="249" width="60" height="60" fill-opacity="0.5" fill="#60a917" stroke="#2d7600" stroke-opacity="0.5" pointer-events="all"/><rect x="898" y="259" width="60" height="60" fill-opacity="0.5" fill="#6a00ff" stroke="#3700cc" stroke-opacity="0.5" pointer-events="all"/><rect x="1008.5" y="249" width="60" height="60" fill-opacity="0.5" fill="#60a917" stroke="#2d7600" stroke-opacity="0.5" pointer-events="all"/><rect x="1018" y="259" width="60" height="60" fill-opacity="0.5" fill="#6a00ff" stroke="#3700cc" stroke-opacity="0.5" pointer-events="all"/><path d="M 864 223.78 L 1104 224" fill="none" stroke="#000000" stroke-miterlimit="10" pointer-events="stroke"/><path d="M 984 104 L 984 344" fill="none" stroke="#000000" stroke-miterlimit="10" pointer-events="stroke"/><path d="M 408.96 228.74 L 409.04 218.74 L 459.04 219.12 L 459.12 208.62 L 478 224.26 L 458.89 239.61 L 458.96 229.12 Z" fill="none" stroke="#000000" stroke-miterlimit="10" pointer-events="all"/><path d="M 764.46 228.74 L 764.54 218.74 L 814.54 219.12 L 814.62 208.62 L 833.5 224.26 L 814.39 239.61 L 814.46 229.12 Z" fill="none" stroke="#000000" stroke-miterlimit="10" pointer-events="all"/></g></svg>